P1 
# Los comentarios van precedidos del signo numeral (magick number)

# Columnas y filas de la imagen
5 4
0 0 1 0 0
0 1 0 1 0
1 1 1 1 1
1 0 0 0 1
